#!OML:ASF F:\VICON\USERDATA\INSTALL\rory3\rory3.ASF
:FULLY-SPECIFIED
:DEGREES
508
root -0.160632 16.9389 17.0711 -159.373 -27.9266 -177.478
lowerback -15.4685 2.48113 3.31959
upperback -6.41418 1.99031 1.79486
thorax 1.92741 0.636496 0.331408
lowerneck -7.27563 2.311 -0.348564
upperneck 44.9462 -3.64269 1.61568
head 18.0748 -3.26486 -0.398037
rclavicle 2.76559e-014 3.73715e-014
rhumerus -64.2661 32.3332 -110.244
rradius 35.4464
rwrist -33.7004
rhand 24.4945 3.8164
rfingers 7.12502
rthumb 48.6966 -18.0647
lclavicle 2.76559e-014 3.73715e-014
lhumerus -60.0263 -22.4395 102.472
lradius 39.0149
lwrist 14.8521
lhand 26.3165 19.3158
lfingers 7.12502
lthumb 50.3671 40.3437
rfemur -29.7845 3.98316 33.8316
rtibia 28.1691
rfoot -39.4909 -31.0621
rtoes 37.173
lfemur -23.4132 30.9866 -24.5598
ltibia 53.5282
lfoot 21.436 46.4308
ltoes 36.2358
509
root -0.162929 16.9393 17.0678 -159.444 -28.0039 -177.417
lowerback -15.4867 2.46113 3.37329
upperback -6.42109 1.95015 1.84575
thorax 1.92901 0.614725 0.348105
lowerneck -7.28962 2.32233 -0.322244
upperneck 44.9733 -3.62654 1.58654
head 18.094 -3.25941 -0.415552
rclavicle -1.29707e-014 2.3059e-014
rhumerus -64.3826 32.5311 -110.375
rradius 35.4568
rwrist -33.9317
rhand 24.5189 3.6853
rfingers 7.12502
rthumb 48.7191 -18.1849
lclavicle -1.29707e-014 2.3059e-014
lhumerus -59.9829 -22.2839 102.446
lradius 38.9502
lwrist 14.7503
lhand 26.3501 19.4516
lfingers 7.12502
lthumb 50.3977 40.463
rfemur -29.7069 3.55767 34.0658
rtibia 28.1848
rfoot -38.9588 -31.258
rtoes 36.511
lfemur -23.3592 30.9612 -24.4357
ltibia 53.535
lfoot 20.9898 46.6961
ltoes 35.4934
510
root -0.161649 16.9364 17.0676 -159.528 -27.9935 -177.276
lowerback -15.4413 2.44018 3.4501
upperback -6.50392 1.90057 1.9152
thorax 1.81685 0.581922 0.366808
lowerneck -7.18336 2.36979 -0.261802
upperneck 45.01 -3.56588 1.50827
head 18.084 -3.24679 -0.455504
rclavicle -9.75287e-015 -2.46493e-014
rhumerus -64.5454 32.6643 -110.495
rradius 35.4638
rwrist -34.0489
rhand 24.5358 3.47165
rfingers 7.12502
rthumb 48.7346 -18.391
lclavicle -9.75287e-015 -2.46493e-014
lhumerus -60.1419 -22.0503 102.411
lradius 39.102
lwrist 14.7791
lhand 26.4698 19.6872
lfingers 7.12502
lthumb 50.5071 40.6395
rfemur -29.6705 3.23858 34.348
rtibia 28.2083
rfoot -38.5461 -31.1559
rtoes 36.0615
lfemur -23.3758 31.0036 -24.2932
ltibia 53.5631
lfoot 20.5037 46.9209
ltoes 35.4948
511
root -0.160496 16.9364 17.0658 -159.517 -28.0464 -177.203
lowerback -15.5386 2.44211 3.49036
upperback -6.54214 1.88429 1.92058
thorax 1.82891 0.569159 0.349224
lowerneck -7.12826 2.34315 -0.222976
upperneck 44.9492 -3.58076 1.46318
head 18.0293 -3.25097 -0.482812
rclavicle 3.06004e-014 9.54166e-015
rhumerus -64.6401 32.7144 -110.597
rradius 35.528
rwrist -34.24
rhand 24.4821 3.36048
rfingers 7.12502
rthumb 48.6852 -18.5262
lclavicle 3.06004e-014 9.54166e-015
lhumerus -60.1822 -22.0316 102.36
lradius 39.2744
lwrist 14.8339
lhand 26.6684 20.0982
lfingers 7.12502
lthumb 50.6883 40.9519
rfemur -29.7228 3.23986 34.4443
rtibia 28.2321
rfoot -38.5526 -31.1628
rtoes 36.1504
lfemur -23.5006 30.9147 -24.2611
ltibia 53.5965
lfoot 22.2921 46.5664
ltoes 35.1287
512
root -0.162635 16.9378 17.064 -159.443 -28.1098 -177.363
lowerback -15.5854 2.45036 3.36735
upperback -6.59013 1.91178 1.83698
thorax 1.80247 0.58185 0.336043
lowerneck -7.10284 2.3088 -0.180445
upperneck 44.9757 -3.68263 1.51545
head 18.0434 -3.28176 -0.483811
rclavicle 2.48605e-014 -4.05521e-014
rhumerus -64.5884 32.4751 -110.438
rradius 35.555
rwrist -34.1632
rhand 24.5466 3.25856
rfingers 7.12502
rthumb 48.7445 -18.5993
lclavicle 2.48605e-014 -4.05521e-014
lhumerus -60.2917 -22.2022 102.447
lradius 39.3115
lwrist 14.9587
lhand 26.6081 20.3661
lfingers 7.12502
lthumb 50.6333 41.2498
rfemur -29.7287 2.95649 34.3781
rtibia 28.2599
rfoot -38.4383 -31.1143
rtoes 36.0583
lfemur -23.5088 30.8104 -24.4157
ltibia 53.5898
lfoot 24.0837 46.1051
ltoes 34.1837
